<svg xmlns="http://www.w3.org/2000/svg" viewBox="0 0 1068 667"><g stroke-width="0"><path d="M0 333.5V667h1068V0H0zm365.2-131.8c2 3.2 9.4 16.1 16.6 28.8 7.1 12.6 21.4 37.8 31.7 56 10.3 18.1 21.8 38.4 25.5 45s15.1 26.6 25.2 44.5c10.2 17.9 19.5 34.4 20.8 36.7 1.3 2.4 2.7 4.3 3.1 4.3.7 0 3.1-3.9 26.4-42 7.5-12.4 14.4-23.5 15.1-24.7.8-1.2 6.9-5.6 13.6-9.8 29.5-18.3 43.2-27.2 43.5-28.1.2-.5-11.5-8.1-25.9-16.9-49.1-29.9-60.3-36.7-63-38.1l-2.8-1.5v116.2l5.6-3.6c3.1-2 5.8-3.5 6-3.3.2.3-5.2 9.1-20 32-.6 1-1.4 1.8-1.8 1.8-.5 0-.8-36.2-.8-80.5 0-57.1.3-80.5 1.1-80.5 1.1 0 33.4 19.3 91.9 54.8 16.8 10.2 30.7 18.7 31 19s.1.6-.5.8c-.5.3-11.9 7.3-25.1 15.7-13.3 8.3-27.4 17.2-31.3 19.7-4 2.4-7.4 4.7-7.7 5.1-.3.6 22.4 38 36 59.3l3.8 5.8 1.8-2.9c1.9-3.2 19.1-33.5 44.8-78.8 9-16 19.4-34.4 23.2-41 13.2-23.4 33.2-58.8 46.4-82.3l9.8-17.2h5.4c3.1 0 5.4.4 5.4 1.1 0 .5-5.1 10.1-11.4 21.2s-18.2 32.3-26.6 47.2c-8.4 14.8-17.4 30.8-20 35.5s-11.3 20-19.2 34c-8 14-19.3 34-25.3 44.5-5.9 10.4-14.2 25.1-18.6 32.5-4.3 7.4-8.1 14.2-8.4 15.2-.6 1.5 9.1 18.7 10.6 18.8.4 0 3.3-4.8 6.6-10.7 3.3-6 12.9-23 21.3-37.8 26.2-46.5 42.1-74.5 49.3-87.5 21.8-38.8 24.1-42.5 26.8-42.8 1.5-.2 4 .1 5.7.5l3 .8-11 19.5c-24.2 42.9-28.5 50.5-44 78-3.5 6.3-14.7 26.1-24.8 44s-21.3 37.8-25 44.3c-3.7 6.6-7 11.9-7.5 11.9s-3.8-4.9-7.5-10.9c-3.7-5.9-11.6-18.7-17.7-28.3-11.7-18.6-25.4-40.7-34.4-55.4-3-4.9-5.8-8.9-6.3-9-.4 0-10.9 16.3-23.3 36.4-42.9 69.6-42 68.1-43 66.8-1.1-1.4-9.1-15.5-21.3-37.3-24.7-44.1-41.7-74.5-56.1-100-8.9-16-20.1-36-24.9-44.5l-8.6-15.5 2.9-.8c1.6-.4 4.1-.7 5.5-.5 3.4.4 1.3-3.2 71.7 122.8 24.7 44.3 31.4 56 31.9 56 .7 0 10.6-16.8 10.6-18 0-1-40.9-73.9-60-107-2.1-3.6-12.5-21.8-23.1-40.5-10.5-18.7-25.4-44.9-33.1-58.3-7.6-13.3-13.8-24.7-13.8-25.2 0-.6 2.4-1 5.4-1h5.3zM357 511.1c1.8 5.6 3.5 9.7 4 9.3.4-.5 2-4.7 3.5-9.4s3.1-8.9 3.6-9.5c1.5-1.6 3 .9 6.4 11.1l3.2 9.9 3.4-10.4c3-9.2 4.9-12.4 6.5-10.8.3.3-1.4 6.4-3.8 13.6-3.6 11.1-4.6 13.1-6.2 12.9-1.4-.2-2.6-2.6-4.8-9.6-1.7-5-3.3-9.2-3.7-9.2-.3 0-1.9 4.1-3.6 9.1-3 9-4.8 11.5-6.6 8.8-1.1-1.7-7.9-23-7.9-24.7 0-.7.7-1.2 1.5-1.2.9 0 2.4 3.4 4.5 10.1m80.4 1.9c7 15.5 6.9 15 4.8 15-1.1 0-2.5-1.4-3.5-3.5-1.7-3.5-1.7-3.5-8.2-3.5s-6.5 0-8.2 3.5c-1 2.1-2.4 3.5-3.5 3.5-1 0-1.8-.2-1.8-.4s1.4-3.5 3.1-7.3c1.7-3.7 4.4-9.6 6-13.1 2-4.5 3.4-6.3 4.5-6 .9.2 3.7 5 6.8 11.8m58.4-10.3c-.3 1.4-1.3 1.8-4.1 1.7l-3.7-.1v11.8c0 11.2-.1 11.9-2 11.9-1.8 0-2-.8-2.2-11.6l-.3-11.6-3.9-.4c-4.3-.4-5.1-.8-4.1-2.3.4-.7 4.6-1.1 10.6-1.1 9 0 10 .2 9.7 1.7m54.1.4c2.4 1.4 3.1 2.3 2.3 3.1s-2.1.6-4.5-.6c-4.4-2-6.2-2-9.7.1-8.8 5.2-5.4 19.3 4.7 19.3 2.1 0 4.9-.7 6.1-1.6 2.2-1.5 4.2-1.2 4.2.7 0 .6-2 1.9-4.5 3-7 3.1-13.6 1.1-17.5-5.4-7.3-11.9 6.9-25.9 18.9-18.6M590 507v6h14.9l.3-5.8c.2-4.3.7-5.7 1.8-5.7 1.3 0 1.5 2.1 1.5 13 0 11.6-.2 13-1.7 13.3-1.6.3-1.8-.5-1.8-5.8v-6.1l-7.2.3-7.3.3-.3 5.7c-.2 4.3-.7 5.8-1.7 5.8-1.2 0-1.5-2.4-1.5-13.5 0-11.3.2-13.5 1.5-13.5 1.2 0 1.5 1.3 1.5 6m60.6 1c2.6 3.8 5 7 5.3 7 .4 0 2.6-3.2 5-7.1 6.5-10.5 7.6-9.6 7.6 6.6 0 11.6-.2 13-1.7 13.3-1.6.3-1.8-.7-1.8-10v-10.3l-4.3 6.7c-2.3 3.8-4.5 6.8-4.8 6.8-.4 0-2.6-3-5-6.7l-4.4-6.7-.3 10.2c-.2 8.2-.6 10.2-1.7 10.2-1.2 0-1.5-2.3-1.5-13.5 0-16.3.7-16.9 7.6-6.5m71.4-5c0 1.8-.7 2-7.5 2H707v8h6.5c5.1 0 6.5.3 6.5 1.5s-1.4 1.5-6.5 1.5H707v9h7.5c6 0 7.5.3 7.5 1.5s-1.7 1.5-9.5 1.5H703v-27h9.5c8.8 0 9.5.1 9.5 2"/><path d="M429.2 508.7c-.5 1-1.7 3.5-2.5 5.5l-1.6 3.8h10.8l-2.3-5.1c-2.9-6.2-3.2-6.5-4.4-4.2"/></g><path fill="#555" d="M353.8 196.7c1.8.2 4.5.2 6 0s0-.4-3.3-.4-4.5.2-2.7.4m358 0c1.8.2 4.5.2 6 0s0-.4-3.3-.4-4.5.2-2.7.4M484.2 240c0 1.4.2 1.9.5 1.2.2-.6.2-1.8 0-2.5-.3-.6-.5-.1-.5 1.3m.1 12.5c0 4.4.2 6.1.4 3.7.2-2.3.2-5.9 0-8-.2-2-.4-.1-.4 4.3m-120 15.2c.9.2 2.5.2 3.5 0 .9-.3.1-.5-1.8-.5s-2.7.2-1.7.5m340.5 0c1.2.2 3 .2 4 0 .9-.3-.1-.5-2.3-.4-2.2 0-3 .2-1.7.4m-220.5 9.8c0 2.7.2 3.8.4 2.2.2-1.5.2-3.7 0-5-.2-1.2-.4 0-.4 2.8m-.2 9.1c0 1.1.3 1.4.6.6.3-.7.2-1.6-.1-1.9-.3-.4-.6.2-.5 1.3m.2 27.4c0 4.7.2 6.6.4 4.2.2-2.3.2-6.1 0-8.5-.2-2.3-.4-.4-.4 4.3m0 24.5c0 3.8.2 5.3.4 3.2.2-2 .2-5.2 0-7-.2-1.7-.4-.1-.4 3.8m0 37c0 3.3.2 4.5.4 2.7s.2-4.5 0-6-.4 0-.4 3.3m-.1 20.5c0 1.9.2 2.7.5 1.7.2-.9.2-2.5 0-3.5-.3-.9-.5-.1-.5 1.8M367.5 502c-.3.6.1.7.9.4 1.8-.7 2.1-1.4.7-1.4-.6 0-1.3.4-1.6 1m220.3-.3c.7.3 1.6.2 1.9-.1.4-.3-.2-.6-1.3-.5-1.1 0-1.4.3-.6.6m18.9 0c.8.6 1.3 5 1.6 13.3l.3 12.5-.1-12.9c0-10.6-.3-13-1.5-13.3-1.1-.3-1.2-.2-.3.4m37.1 0c.7.3 1.6.2 1.9-.1.4-.3-.2-.6-1.3-.5-1.1 0-1.4.3-.6.6m20.8.2c-.3.5.2.7 1.4.4 1.8-.5 2 .1 2.3 12.3l.3 12.9-.1-13c0-11.3-.2-13-1.7-13.3-.9-.2-1.9.1-2.2.7m39.7-.2c.9.2 2.3.2 3 0 .6-.3-.1-.5-1.8-.5-1.6 0-2.2.2-1.2.5m-224.5 3c.7.3 1.6.2 1.9-.1.4-.3-.2-.6-1.3-.5-1.1 0-1.4.3-.6.6m12 0c.6.2 1.8.2 2.5 0 .6-.3.1-.5-1.3-.5s-1.9.2-1.2.5m214.6.7c-.3.8-.4 2.9-.1 4.8.3 3 .4 2.9.5-.9l.2-4.2 7.8-.4 7.7-.3-7.8-.2c-5.9-.2-7.9.1-8.3 1.2m-219 11.1c0 6.6.1 9.2.3 5.7.2-3.4.2-8.8 0-12-.2-3.1-.3-.3-.3 6.3m218.9 4c0 2.7.2 3.8.4 2.2.2-1.5.2-3.7 0-5-.2-1.2-.4 0-.4 2.8m-164.5 8.2c.6.2 1.8.2 2.5 0 .6-.3.1-.5-1.3-.5s-1.9.2-1.2.5"/><g fill="#d4d4d4" stroke-width="0"><path d="M351.8 197.7c.6.2 1.8.2 2.5 0 .6-.3.1-.5-1.3-.5s-1.9.2-1.2.5m316.8 71c-.6 1.4-.5 1.5.5.6.7-.7 1-1.5.7-1.8s-.9.2-1.2 1.2m34.2.5c.5.5 1.6.8 2.3.6.8-.3.3-.7-1-1.1-1.7-.4-2.1-.3-1.3.5m-342 .5c1.2.2 3.2.2 4.5 0 1.2-.2.2-.4-2.3-.4s-3.5.2-2.2.4m347.2-.3c0 .2.9.6 2 .9s2 .1 2-.4-.9-.9-2-.9-2 .2-2 .4m-297 15.5c0 .6.4 1.3 1 1.6s.7-.1.4-.9c-.7-1.8-1.4-2.1-1.4-.7M603.5 311c-.3.5.1 1 1 1s1.3-.5 1-1c-.3-.6-.8-1-1-1s-.7.4-1 1m39.5 3c-.6 1.1-.8 2-.6 2 .3 0 1-.9 1.6-2s.8-2 .6-2c-.3 0-1 .9-1.6 2m31.6 3.7c-.6 1.4-.5 1.5.5.6.7-.7 1-1.5.7-1.8s-.9.2-1.2 1.2m-172.1 50.2c-.3.5-.2 1.2.3 1.5s.9-.1.9-.9c0-1.7-.3-1.9-1.2-.6m-3.2 1.9c-.9.5-.6 1.2 1 2.1 1.9 1.3 2.1 1.2 1-.1-.7-.8-1-1.8-.6-2.1.9-.9.1-.8-1.4.1M488 418c-.9.6-1 1-.3 1 .6 0 1.5-.5 1.8-1 .8-1.2.4-1.2-1.5 0m-6.4 9.3c.3 1 .9 1.5 1.2 1.2s0-1.1-.7-1.8c-1-.9-1.1-.8-.5.6m-114 76.3c-.3.7.1 1.5.9 1.7.7.3 1.5-.2 1.8-1.2.5-2-1.9-2.5-2.7-.5m219.8 10.9c0 7.1.1 9.9.3 6.2s.2-9.6 0-13-.3-.4-.3 6.8m1.9-7c0 3.3.2 4.5.4 2.7s.2-4.5 0-6-.4 0-.4 3.3m53.9 6.8c.4 15.7 2.3 17.9 2.4 2.7v-10.5L645 517l-.7 10.5v-12.2c0-6.8-.3-12.6-.7-13-.3-.4-.5 5-.4 12m23.9-10.7c0 1.1.3 1.4.6.6.3-.7.2-1.6-.1-1.9-.3-.4-.6.2-.5 1.3m36.4 11.1v12.8l6 .1h6l-5.7-.3-5.7-.4-.4-12.4-.3-12.5zm-214.7-11c.7.3 1.6.2 1.9-.1.4-.3-.2-.6-1.3-.5-1.1 0-1.4.3-.6.6m53 0c.6.2 1.8.2 2.5 0 .6-.3.1-.5-1.3-.5s-1.9.2-1.2.5m-57.6 11.9c.2 8.3.7 11.9 1.6 12.2.7.2 1.2-.5 1.2-1.7s-.5-2.1-1.1-2.1c-.7 0-.9-3-.5-9.4.4-6.2.3-9.7-.4-10.1-.7-.5-1 3-.8 11.1m48.7-9.9c-1.3 1.6-1.2 1.7.4.4s2.1-2.1 1.3-2.1c-.2 0-1 .8-1.7 1.7m1 2c-1.3 1.6-1.2 1.7.4.4s2.1-2.1 1.3-2.1c-.2 0-1 .8-1.7 1.7m113.7-.9c-.3.5.1.9.9.9s1.2-.4.9-.9c-.3-.4-.7-.8-.9-.8s-.6.4-.9.8m.8 3c.4.3 1.4.7 2.2.8.9.1 1.3 0 1-.4-.4-.3-1.4-.7-2.2-.8-.9-.1-1.3 0-1 .4m11.2 2.4c.3.5 1 .6 1.5.3 1.3-.9 1.1-1.2-.6-1.2-.8 0-1.2.4-.9.9m7.4 7.5c-.3 4.5-.1 7.8.3 7.4s.7-4.1.5-8.2l-.3-7.4zM529.2 515c0 1.4.2 1.9.5 1.2.2-.6.2-1.8 0-2.5-.3-.6-.5-.1-.5 1.3m60.2 1.4c-.3.7-.3 3.5-.1 6.2l.3 4.9.2-5.7.2-5.7 8.3-.4 8.2-.3-8.3-.2c-6.2-.2-8.4.1-8.8 1.2m64.9.6c.1 1.4.4 1.6 1.4.8 1.6-1.3 1.6-1.5-.1-2.1-1-.4-1.4 0-1.3 1.3"/><path d="M709.7 515.7c1.8.2 5 .2 7 0 2.1-.2.7-.4-3.2-.4-3.8 0-5.5.2-3.8.4M424 516.9c0 .6.4 1.3 1 1.6s.7-.1.4-.9c-.7-1.8-1.4-2.1-1.4-.7m10.5 1.1c-1.6.7-1.7.9-.3.9.9.1 2-.4 2.3-.9.7-1.1.7-1.1-2 0m-75.5 2.9c0 1 1.9 2.5 2.5 2 .1-.2-.3-1-1.1-1.7s-1.4-.8-1.4-.3m67-.3c6 .8 12.8.8 12.3.1-.2-.4-3.7-.6-7.6-.6-4 .1-6.1.3-4.7.5m-49.1 3.5c-1.4 2.7 1 4.8 2.5 2.2.6-1.1.5-1.8-.2-2.1-.7-.2-1-.8-.6-1.3.3-.5.3-.9 0-.9s-1 1-1.7 2.1m-16.9 1.8c0 2.5.6 2.7 1.3.6.4-.8.2-1.7-.3-2-.6-.4-1 .3-1 1.4m352.8-.2c1.7.2 4.7.2 6.5 0 1.7-.2.3-.4-3.3-.4s-5 .2-3.2.4M418 527.2c0 .4.4.8.9.8.6 0 1.2-.4 1.5-.8.3-.5-.1-.9-.9-.9s-1.5.4-1.5.9m22.5-.2c.4.6 1.1.8 1.6.5 1.4-.9 1.1-1.5-.7-1.5-.8 0-1.2.5-.9 1"/></g><g fill="#fff" stroke-width="0"><path d="m354.2 197.7-2.3.4 2 3.2c1 1.8 2.8 4.8 3.9 6.7s3.7 6.4 5.7 10c3.5 6 8.7 15.1 20.2 35.5 2.4 4.4 6.2 10.9 8.3 14.5 5.7 9.8 24.7 43.2 44.5 78.5 3.4 6 7.9 13.9 10 17.5s5 8.7 6.5 11.5c1.5 2.7 4.4 7.9 6.5 11.5 3.7 6.5 13.6 23.9 18.9 33.5 1.6 2.7 3.2 5.5 3.7 6.1.6.8-.5 3.4-3.1 7.5-2.2 3.5-4.8 7.9-5.7 9.6-.9 1.8-2.2 3.3-2.9 3.3s-3.7-4.4-6.7-9.8c-3-5.3-10-18-15.7-28.2-13.7-24.6-13.7-24.7-21.5-38.5-3.7-6.6-8.4-14.9-10.3-18.5-2-3.6-4.5-8.1-5.6-10.1-5.4-9.4-10.1-17.8-12.6-22.4-1.5-2.8-5-9-7.9-13.9-2.8-4.9-5.1-9.1-5.1-9.3s-2.4-4.5-5.4-9.6-6.5-11.2-7.8-13.7c-2.3-4.5-2.4-4.5-7.8-4.6l-5.5-.2 4.5.8c4.5.7 4.5.7.8.8l-3.6.2 6.2 11.2c3.5 6.2 9 16 12.3 21.8s13.4 23.5 22.3 39.5c9 15.9 19.5 34.6 23.3 41.5 7.7 13.7 8.1 14.4 19 34 4.1 7.4 10.3 18.4 13.7 24.5 3.5 6 7.4 13 8.7 15.5 4.2 7.7 4.4 7.7 8.9.2 2.2-3.7 7.1-11.7 10.9-17.7 3.7-6.1 10.4-16.9 14.8-24 4.4-7.2 12.2-19.8 17.3-28 5.1-8.3 11-17.8 13-21.3 2.1-3.4 4.1-6.2 4.5-6.2.9 0 4.4 5 10.6 15 2.5 4.1 7.2 11.7 10.4 16.8 3.3 5.1 5.9 9.5 5.9 9.8s.8 1.7 1.9 3.2c2 2.9 3.4 5.1 19.1 30.2 5.7 9.1 11.8 18.7 13.5 21.5 1.8 2.7 3.6 5.8 4.1 6.7.7 1.4 2.4-.9 8.2-11.5 4-7.3 9.3-16.6 11.7-20.7s5.4-9.5 6.7-12 5.5-9.9 9.3-16.5c3.7-6.6 9.6-17 13-23 11.6-20.6 25.5-45.2 39-69 3.8-6.6 7.8-13.8 9.1-16 8.8-16 10.5-19 11.3-19.9.5-.6 1.2-2.1 1.5-3.4.6-1.7.3-2.2-1.1-2.3-1-.1-.4-.5 1.2-.9 2.6-.7 2.3-.8-2.1-.9l-5.2-.1-4.1 7.2c-2.3 4-4.9 8.4-5.7 9.8s-2.8 5-4.5 8-4.3 7.7-5.8 10.5c-1.6 2.7-4.2 7.5-5.9 10.5-1.6 3-4.6 8.4-6.7 12-4.8 8.3-15.3 26.9-21.7 38.5-2.8 4.9-7.9 14.2-11.5 20.5-6.7 11.7-13 22.9-17.5 31-1.4 2.5-4.4 7.6-6.7 11.5-2.3 3.8-5.6 9.8-7.3 13.3-2 3.8-3.8 6.1-4.7 6-1.4-.3-12-16.4-12-18.3-.1-.6 2.1-4.8 4.8-9.5s7.8-13.7 11.4-20 9.3-16.5 12.8-22.5c3.4-6.1 7.8-13.8 9.8-17.3s4.5-8 5.7-10 5.3-9.3 9.1-16.2c7.2-12.8 9.1-16.1 32.3-57 7.3-12.9 14.5-25.8 16-28.5 2.5-4.6 8.9-15.7 19.3-34 6.3-11 6.9-12.4 6.1-13.6-.4-.7-.3-.9.4-.5.6.3 1.3.2 1.6-.3.7-1.1-1.7-2.1-5.5-2.1-2.3 0-3.4.8-5.3 3.8-2.3 3.7-12.9 22.3-18.6 32.7-1.5 2.7-5.8 10.4-9.5 17s-8.1 14.5-9.8 17.5c-1.6 3-3.3 6-3.8 6.6-.5.7-2 3.1-3.3 5.5-1.2 2.4-6.4 11.8-11.6 20.9-19.6 34.8-21.8 38.8-28.2 50-3.6 6.3-8.2 14.4-10.3 18s-4.8 8.3-6 10.5-4.1 7.4-6.5 11.5-5.1 8.8-6 10.5c-4.3 8.1-10.2 17.5-10.8 17.5-.4-.1-2-2.2-3.6-4.8s-4.4-7-6.1-9.7c-5.1-8-9.9-15.8-11-17.6-1.4-2.4-13.1-21.4-17.2-27.9l-3.4-5.5 2.5-2c1.3-1.1 5.7-4.1 9.8-6.6 43.2-27.1 50.9-32.2 49.6-33-.7-.5-.9-.9-.4-.9 1.5 0-3.5-3.3-16.4-11-6.9-4-14.7-8.8-17.5-10.5-2.7-1.7-7.5-4.6-10.5-6.5-3-1.8-7.1-4.3-9-5.5s-10.2-6.2-18.4-11.1-17.2-10.3-20-12.1c-5.7-3.6-13-7.8-21.1-12.4l-5.5-3.1v79.3c0 43.6.2 79 .4 78.8.9-.8 5.9-8.4 10.8-16.3 3.6-5.7 4.7-8.1 3.9-8.9-.9-.9-1.7-.8-3.1.1-1.1.6-2.2 1.2-2.5 1.2s-.5-26.6-.5-59c0-39.1.3-59 1-59 1 0 20.9 11.7 31.5 18.5 2.8 1.8 8.6 5.3 13 7.9s10.9 6.6 14.5 8.8 8.1 5 10.1 6.2C576.9 304 589 311.5 589 312s-2.2 2-14.2 9.6c-4.2 2.7-11.6 7.4-16.5 10.5-4.8 3.1-13 8.2-18.1 11.4-6.1 3.8-9.9 6.9-10.9 8.9-.9 1.7-2.4 4.2-3.3 5.6-1 1.4-3 4.7-4.6 7.4s-3.8 6.3-4.9 8c-1.1 1.8-3.3 5.4-4.9 8.2-3 5.2-6.4 10.5-10.4 16.6-1.3 2-3.1 5-4 6.5-6.7 11.5-8.5 14.3-9 14.3-.8 0-1.8-1.7-10.7-17.5-3.4-6.1-9.2-16.4-13-23s-9.8-17.3-13.4-23.7c-3.7-6.5-7.3-12.6-8.1-13.6s-1.6-2.5-1.8-3.2c-.3-1.2-10.5-19.8-13.2-24-.6-.8-2.6-4.4-4.6-8-1.9-3.6-5.3-9.4-7.4-13s-4.8-8.3-5.9-10.5-3.4-6.5-5.2-9.5c-3.1-5.2-8.5-14.7-13.4-23.5-1.3-2.2-4.2-7.4-6.5-11.5-2.4-4.1-5.3-9.3-6.5-11.5s-4-6.9-6-10.5c-2.1-3.6-5.4-9.3-7.2-12.8-3.6-6.5-4.2-6.8-11.1-5.5m351.5 71.9c-.3.3-1.2.4-1.9.1-.8-.3-.5-.6.6-.6 1.1-.1 1.7.2 1.3.5"/><path d="M502.1 368.9c-1.4 1-1.9 2.1-1.3 2.4.5.4 1.7-.4 2.6-1.8 2-3 1.8-3-1.3-.6M352 503.2c0 .9 1.1 4.7 2.5 8.5 1.3 3.7 3 8.8 3.6 11.3.7 2.5 1.4 3.8 1.6 2.8.2-.9 1-1.5 1.7-1.2.9.3 2.1-2.4 4-8.6 2.5-8.3 4.1-10.9 5-7.8 1.7 5.8 5.9 16.8 6.3 16.4.6-.6-5.6-20.6-6.8-22-.4-.5-.5.2-.2 1.4.5 1.8.3 2.2-.9 1.8-1.5-.6-2.9 2.6-5.7 13-.7 2.4-1.7 4.2-2.3 4-.5-.2-2.3-4.6-4-9.8-2.9-9.3-4.8-13.1-4.8-9.8m32.1 2.5c-.6 2.1-2.2 7.1-3.5 11-1.4 4-2.1 7.3-1.6 7.3.7 0 2.4-4.5 7-19.3.5-1.6.5-2.7 0-2.7s-1.4 1.7-1.9 3.7m40.7 6.6c-4.7 10.4-6.3 14.7-5.5 14.7.3 0 1.4-1.6 2.6-3.5 2-3.5 2.1-3.5 9.2-3.5 6.9 0 7.1.1 8.2 3 .6 1.6 1.5 3 2 3 1 0 1.3.6-4.5-12-4.9-10.6-5.6-12-6.6-12-.4 0-2.8 4.6-5.4 10.3m9.2-.7c1.7 3.6 3 6.8 3 7 0 .9-11.9.3-12.5-.6s5-13 6.1-13c.2 0 1.8 3 3.4 6.6m42.4-8.9c.3.4 2.5.9 4.9 1.2l4.2.6-.1 9.8c0 5.3.3 9.7.7 9.7.5 0 1-4.6 1.1-10.3l.3-10.2 3.8.1c2 .1 3.7-.3 3.7-.7 0-.5-4.3-.9-9.7-.9-5.3 0-9.3.3-8.9.7m60 1.2c-4.7 2.9-6.4 5.9-6.4 11.5 0 4.3.4 5.3 3.5 8.1 1.9 1.9 4.8 3.6 6.5 4 3.4.7 9.2-.9 11-3.1 1.6-1.8.2-1.8-3 .1-4.9 2.8-12 1-14.7-3.7-1.7-3.2-1.6-9.9.3-12.6 1.7-2.5 6.4-5.2 9.1-5.2 1 0 3.1.7 4.7 1.5 4.1 2.2 5.6 1.8 2.1-.5-3.8-2.5-9.1-2.5-13.1-.1m51.9 10.6c0 8.6.2 11 .6 7l.6-6 8.3-.3 8.2-.3v6.1c0 3.3.4 6 1 6s1-4.8 1-12.5-.4-12.5-1-12.5-1 2.7-1 6v6.1l-8.2-.3-8.3-.3-.6-6c-.4-4-.6-1.6-.6 7m56.1-.3c0 10.8 0 11.1.3 2.5.3-6.7.7-9.7 1.6-9.7.7 0 3 3 5.2 6.6 4.5 7.3 3.9 7.5 9.8-2.1 1.6-2.5 3.3-4.5 3.8-4.5s1 4.6 1.1 10.2l.1 10.3.8-9.5c.8-10.1.3-16-1.3-16-.6 0-.7.7-.4 1.6.3.8.2 1.3-.2 1-.5-.3-2.8 2.6-5.2 6.5-2.4 3.8-4.5 6.9-4.7 6.9s-1-1.2-1.6-2.8c-1.8-3.8-7.9-13.2-8.6-13.2-.4 0-.7 5.5-.7 12.2m59.6.3V527l9.3-.1c10.1-.1 9.9-.7-.3-1.1l-6.5-.3v-10l7-.6 7-.5-7.3-.2-7.3-.2.3-5.3.3-5.2 7.1.3c4.5.3 7.4 0 7.8-.7.5-.8-2-1.1-8.3-1.1H704z"/></g><path fill="gray" d="M484.3 266c0 3 .2 4.3.4 2.7.2-1.5.2-3.9 0-5.5-.2-1.5-.4-.2-.4 2.8m-.2 61.6c0 1.1.3 1.4.6.6.3-.7.2-1.6-.1-1.9-.3-.4-.6.2-.5 1.3m.3 30.4c0 6.3.1 8.9.3 5.7.2-3.1.2-8.3 0-11.5-.2-3.1-.3-.5-.3 5.8m-55.9 144c-.3.6.1.7.9.4 1.8-.7 2.1-1.4.7-1.4-.6 0-1.3.4-1.6 1m53.8-.3c2.6.2 6.7.2 9 0s.2-.3-4.8-.3c-4.9 0-6.8.1-4.2.3m228.5 0c1.8.2 4.5.2 6 0s0-.4-3.3-.4-4.5.2-2.7.4M665.3 521c0 3.6.2 5 .4 3.2.2-1.7.2-4.7 0-6.5-.2-1.7-.4-.3-.4 3.3"/><path fill="#aaa" d="M494.5 256.2c-.3.7-.4 27.2-.3 58.8l.3 57.5.5-58.8c.3-32.3.4-58.7.2-58.7-.1 0-.5.6-.7 1.2m47.3 245.5c.6.2 1.8.2 2.5 0 .6-.3.1-.5-1.3-.5s-1.9.2-1.2.5m63.4 5.5-.2 5.7-7.7.4-7.8.3 7.8.2c8.8.2 9 .1 8.4-7.4l-.3-4.9zm59.6 3.3c.2 1.9.6 3.5.8 3.5s.4-1.6.4-3.5-.4-3.5-.8-3.5-.6 1.6-.4 3.5m45 3.2c1.7.2 4.7.2 6.5 0 1.7-.2.3-.4-3.3-.4s-5 .2-3.2.4m-104.7 7.5c0 3.1.2 5.9.7 6.1.4.3.6-1.6.4-4.1-.5-7.3-1-8.2-1.1-2m-176.8-2.5c.9.2 2.5.2 3.5 0 .9-.3.1-.5-1.8-.5s-2.7.2-1.7.5m121.7 3.7c0 .2.7.7 1.6 1 .8.3 1.2.2.9-.4-.6-1-2.5-1.4-2.5-.6m-18 1c0 .2.8 1 1.8 1.7 1.5 1.3 1.6 1.2.3-.4s-2.1-2.1-2.1-1.3m55.8 4.3c.7.3 1.6.2 1.9-.1.4-.3-.2-.6-1.3-.5-1.1 0-1.4.3-.6.6m132 0c.7.3 1.6.2 1.9-.1.4-.3-.2-.6-1.3-.5-1.1 0-1.4.3-.6.6"/><path fill="#555580" d="M484.2 293c0 1.4.2 1.9.5 1.2.2-.6.2-1.8 0-2.5-.3-.6-.5-.1-.5 1.3"/><path fill="#805580" d="M484.1 289.6c0 1.1.3 1.4.6.6.3-.7.2-1.6-.1-1.9-.3-.4-.6.2-.5 1.3m.2 8.9c0 2.2.2 3 .4 1.7.2-1.2.2-3 0-4-.3-.9-.5.1-.4 2.3m-.1 25.5c0 1.4.2 1.9.5 1.2.2-.6.2-1.8 0-2.5-.3-.6-.5-.1-.5 1.3"/><path fill="#805555" d="M484.2 386c0 1.4.2 1.9.5 1.2.2-.6.2-1.8 0-2.5-.3-.6-.5-.1-.5 1.3"/><path fill="#ffd4d4" d="M485.1 516.6c0 1.1.3 1.4.6.6.3-.7.2-1.6-.1-1.9-.3-.4-.6.2-.5 1.3"/></svg>